<?xml version="1.0" standalone="no"?>
<!DOCTYPE svg PUBLIC "-//W3C//DTD SVG 20010904//EN"
 "http://www.w3.org/TR/2001/REC-SVG-20010904/DTD/svg10.dtd">
<svg version="1.0" xmlns="http://www.w3.org/2000/svg"
 width="480.000000pt" height="480.000000pt" viewBox="0 0 480.000000 480.000000"
 preserveAspectRatio="xMidYMid meet">

<g transform="translate(0.000000,480.000000) scale(0.100000,-0.100000)"
fill="#000000" stroke="none">
<path d="M1674 4773 c-47 -65 -169 -292 -216 -400 -98 -232 -153 -431 -190
-688 -16 -115 -16 -397 1 -500 87 -544 354 -1106 873 -1838 146 -206 184 -262
316 -464 215 -330 474 -753 518 -847 l18 -36 510 0 511 0 44 78 c41 73 109
184 225 367 83 131 436 666 478 722 l38 53 -2 1672 -3 1673 -21 46 c-31 67
-87 124 -152 156 l-57 28 -1436 3 -1435 2 -20 -27z m2926 -313 c0 -5 -24 -49
-53 -97 -30 -49 -94 -155 -142 -238 -49 -82 -120 -204 -160 -270 -39 -66 -104
-176 -145 -245 -40 -69 -106 -179 -145 -245 -39 -66 -111 -187 -160 -270 -48
-82 -114 -193 -145 -245 -32 -52 -65 -110 -74 -127 -16 -32 -16 -33 6 -33 12
0 198 25 412 55 214 31 391 54 393 51 3 -2 -35 -52 -84 -111 -48 -59 -108
-133 -133 -165 -25 -31 -160 -198 -300 -370 -140 -172 -277 -340 -305 -375
-27 -34 -86 -106 -130 -161 -45 -54 -179 -220 -299 -369 -121 -148 -228 -279
-239 -290 -19 -20 -19 -20 -13 20 4 22 36 168 71 325 155 687 244 1093 241
1097 0 1 -53 -10 -116 -24 -63 -13 -186 -39 -272 -58 -183 -38 -171 -45 -139
83 11 43 34 145 51 227 17 83 55 258 85 390 51 222 93 412 196 880 79 363 122
550 126 554 2 3 268 8 591 11 323 4 653 7 735 8 91 1 147 -2 147 -8z"/>
<path d="M890 2918 c-45 -81 -194 -318 -199 -318 -4 0 -28 57 -55 128 -27 70
-52 131 -56 135 -7 8 -76 -67 -270 -288 -52 -60 -110 -125 -128 -145 l-33 -35
5 45 c3 25 8 86 12 135 l6 90 -86 -85 -86 -85 2 -405 c1 -223 4 -354 5 -292
l4 113 32 -7 c82 -17 245 -82 378 -150 178 -91 326 -189 613 -403 342 -255
447 -320 585 -362 66 -20 88 -21 225 -16 156 6 253 24 248 47 -2 7 -23 40 -47
74 -163 229 -322 465 -412 611 -87 141 -238 411 -254 453 l-10 26 -68 -68
c-91 -90 -103 -70 -18 31 l64 76 -45 96 c-50 107 -162 407 -183 489 l-13 52
-93 50 c-51 28 -95 50 -96 50 -2 0 -14 -19 -27 -42z"/>
<path d="M0 1015 l0 -554 53 -5 c28 -4 156 -18 282 -32 260 -28 375 -49 538
-99 100 -30 188 -61 513 -180 122 -45 226 -65 369 -72 140 -7 227 5 359 47 85
27 362 158 410 193 19 14 16 20 -63 148 -46 74 -94 148 -107 166 l-24 31 -71
-18 c-118 -31 -239 -43 -365 -37 -98 4 -134 10 -205 35 -168 58 -346 162 -635
369 -397 284 -729 466 -1001 546 l-53 16 0 -554z"/>
</g>
</svg>
